<svg
width="900"
height="430"
viewBox="0 0 900 430"
xmlns="http://www.w3.org/2000/svg">

<!-- ================================= -->
<!-- DEFINITIONS -->
<!-- ================================= -->

<defs>

<!-- Background -->
<linearGradient id="bg" x1="0%" y1="0%" x2="100%" y2="100%">

<stop offset="0%" stop-color="#070707"/>

<stop offset="100%" stop-color="#120000"/>

</linearGradient>

<!-- Red Glow -->

<filter id="glow">

<feGaussianBlur stdDeviation="4" result="blur"/>

<feMerge>

<feMergeNode in="blur"/>

<feMergeNode in="SourceGraphic"/>

</feMerge>

</filter>

<!-- Grid -->

<pattern
id="grid"
width="60"
height="60"
patternUnits="userSpaceOnUse">

<path
d="M60 0H0V60"
fill="none"
stroke="#440011"
stroke-width="1"/>

</pattern>

</defs>

<!-- Background -->

<rect
width="900"
height="430"
fill="url(#bg)"/>

<!-- Grid -->

<rect
width="900"
height="430"
fill="url(#grid)"
opacity="0.45"/>

<!-- Border -->

<rect
x="12"
y="12"
width="876"
height="406"
rx="20"
fill="none"
stroke="#ff0033"
stroke-width="3"
filter="url(#glow)"/>

<!-- Corner Dots -->

<circle cx="25" cy="25" r="6" fill="#ff0033"/>
<circle cx="875" cy="25" r="6" fill="#ff0033"/>
<circle cx="25" cy="405" r="6" fill="#ff0033"/>
<circle cx="875" cy="405" r="6" fill="#ff0033"/>

<!-- Title Panel -->

<rect
x="270"
y="28"
width="360"
height="52"
rx="10"
fill="#111111"
stroke="#ff0033"/>

<circle
cx="290"
cy="54"
r="8"
fill="#00ff66">

<animate
attributeName="opacity"
values="1;0.2;1"
dur="1.5s"
repeatCount="indefinite"/>

</circle>

<text
x="450"
y="62"
text-anchor="middle"
fill="white"
font-size="22"
font-family="Georgia"
font-weight="bold">

TECH MATRIX

</text>

<!-- Version -->

<text
x="820"
y="28"
fill="#666"
font-size="14"
font-family="Consolas">

SYSTEM v3.0

</text>

<!-- Left Japanese -->

<text
x="55"
y="210"
fill="#770022"
font-size="42"
font-family="serif"
writing-mode="tb">

技術

</text>
  <!-- ================================= -->
<!-- TECH PANELS - ROW 1 -->
<!-- ================================= -->

<!-- Python -->
<rect x="55" y="110" width="180" height="70" rx="10"
fill="#111111"
stroke="#ff0033"/>

<text x="75" y="140"
fill="#ffffff"
font-size="22"
font-family="Consolas">🐍 Python</text>

<rect x="75" y="155"
width="140"
height="8"
rx="4"
fill="#330000"/>

<rect x="75" y="155"
width="130"
height="8"
rx="4"
fill="#ff0033">

<animate
attributeName="width"
values="0;130;130"
dur="2s"
fill="freeze"/>

</rect>

<text
x="205"
y="142"
fill="#ff6666"
font-size="14"
font-family="Consolas">

95%

</text>

<!-- Java -->
<rect
x="255"
y="110"
width="180"
height="70"
rx="10"
fill="#111111"
stroke="#ff0033"/>

<text
x="275"
y="140"
fill="#ffffff"
font-size="22"
font-family="Consolas">

☕ Java

</text>

<rect
x="275"
y="155"
width="140"
height="8"
rx="4"
fill="#330000"/>

<rect
x="275"
y="155"
width="122"
height="8"
rx="4"
fill="#ff0033">

<animate
attributeName="width"
values="0;122;122"
dur="2.3s"
fill="freeze"/>

</rect>

<text
x="405"
y="142"
fill="#ff6666"
font-size="14"
font-family="Consolas">

90%

</text>

<!-- HTML -->
<rect
x="455"
y="110"
width="180"
height="70"
rx="10"
fill="#111111"
stroke="#ff0033"/>

<text
x="475"
y="140"
fill="#ffffff"
font-size="22"
font-family="Consolas">

🌐 HTML

</text>

<rect
x="475"
y="155"
width="140"
height="8"
rx="4"
fill="#330000"/>

<rect
x="475"
y="155"
width="135"
height="8"
rx="4"
fill="#ff0033">

<animate
attributeName="width"
values="0;135;135"
dur="2.5s"
fill="freeze"/>

</rect>

<text
x="605"
y="142"
fill="#ff6666"
font-size="14"
font-family="Consolas">

96%

</text>

<!-- CSS -->
<rect
x="655"
y="110"
width="180"
height="70"
rx="10"
fill="#111111"
stroke="#ff0033"/>

<text
x="675"
y="140"
fill="#ffffff"
font-size="22"
font-family="Consolas">

🎨 CSS

</text>

<rect
x="675"
y="155"
width="140"
height="8"
rx="4"
fill="#330000"/>

<rect
x="675"
y="155"
width="125"
height="8"
rx="4"
fill="#ff0033">

<animate
attributeName="width"
values="0;125;125"
dur="2.8s"
fill="freeze"/>

</rect>

<text
x="805"
y="142"
fill="#ff6666"
font-size="14"
font-family="Consolas">

91%

</text>
  <!-- ================================= -->
<!-- TECH PANELS - ROW 2 -->
<!-- ================================= -->

<!-- JavaScript -->
<rect
x="55"
y="205"
width="180"
height="70"
rx="10"
fill="#111111"
stroke="#ff0033"/>

<text
x="75"
y="235"
fill="#ffffff"
font-size="22"
font-family="Consolas">

⚡ JavaScript

</text>

<rect x="75" y="250" width="140" height="8" rx="4" fill="#330000"/>

<rect
x="75"
y="250"
width="118"
height="8"
rx="4"
fill="#ff0033">

<animate
attributeName="width"
values="0;118;118"
dur="2.2s"
fill="freeze"/>

</rect>

<text
x="205"
y="237"
fill="#ff6666"
font-size="14"
font-family="Consolas">

88%

</text>

<!-- Git -->
<rect
x="255"
y="205"
width="180"
height="70"
rx="10"
fill="#111111"
stroke="#ff0033"/>

<text
x="275"
y="235"
fill="#ffffff"
font-size="22"
font-family="Consolas">

🐙 Git

</text>

<rect x="275" y="250" width="140" height="8" rx="4" fill="#330000"/>

<rect
x="275"
y="250"
width="126"
height="8"
rx="4"
fill="#ff0033">

<animate
attributeName="width"
values="0;126;126"
dur="2.5s"
fill="freeze"/>

</rect>

<text
x="405"
y="237"
fill="#ff6666"
font-size="14"
font-family="Consolas">

90%

</text>

<!-- GitHub -->
<rect
x="455"
y="205"
width="180"
height="70"
rx="10"
fill="#111111"
stroke="#ff0033"/>

<text
x="475"
y="235"
fill="#ffffff"
font-size="22"
font-family="Consolas">

🐱 GitHub

</text>

<rect x="475" y="250" width="140" height="8" rx="4" fill="#330000"/>

<rect
x="475"
y="250"
width="133"
height="8"
rx="4"
fill="#ff0033">

<animate
attributeName="width"
values="0;133;133"
dur="2.8s"
fill="freeze"/>

</rect>

<text
x="605"
y="237"
fill="#ff6666"
font-size="14"
font-family="Consolas">

95%

</text>

<!-- Flask -->
<rect
x="655"
y="205"
width="180"
height="70"
rx="10"
fill="#111111"
stroke="#ff0033"/>

<text
x="675"
y="235"
fill="#ffffff"
font-size="22"
font-family="Consolas">

🧪 Flask

</text>

<rect x="675" y="250" width="140" height="8" rx="4" fill="#330000"/>

<rect
x="675"
y="250"
width="112"
height="8"
rx="4"
fill="#ff0033">

<animate
attributeName="width"
values="0;112;112"
dur="3s"
fill="freeze"/>

</rect>

<text
x="805"
y="237"
fill="#ff6666"
font-size="14"
font-family="Consolas">

82%

</text>
  <!-- ================================= -->
<!-- TECH PANELS - ROW 3 -->
<!-- ================================= -->

<!-- ESP32 -->
<rect
x="155"
y="300"
width="180"
height="70"
rx="10"
fill="#111111"
stroke="#ff0033"/>

<text
x="175"
y="330"
fill="#ffffff"
font-size="22"
font-family="Consolas">

📡 ESP32

</text>

<rect x="175" y="345" width="140" height="8" rx="4" fill="#330000"/>

<rect
x="175"
y="345"
width="128"
height="8"
rx="4"
fill="#ff0033">

<animate
attributeName="width"
values="0;128;128"
dur="2.5s"
fill="freeze"/>

</rect>

<text
x="305"
y="332"
fill="#ff6666"
font-size="14"
font-family="Consolas">

92%

</text>

<!-- Raspberry Pi -->

<rect
x="365"
y="300"
width="180"
height="70"
rx="10"
fill="#111111"
stroke="#ff0033"/>

<text
x="385"
y="330"
fill="#ffffff"
font-size="20"
font-family="Consolas">

🍓 Raspberry Pi

</text>

<rect x="385" y="345" width="140" height="8" rx="4" fill="#330000"/>

<rect
x="385"
y="345"
width="120"
height="8"
rx="4"
fill="#ff0033">

<animate
attributeName="width"
values="0;120;120"
dur="2.8s"
fill="freeze"/>

</rect>

<text
x="515"
y="332"
fill="#ff6666"
font-size="14"
font-family="Consolas">

88%

</text>

<!-- AI / ML -->

<rect
x="575"
y="300"
width="180"
height="70"
rx="10"
fill="#111111"
stroke="#ff0033"/>

<text
x="595"
y="330"
fill="#ffffff"
font-size="22"
font-family="Consolas">

🤖 AI / ML

</text>

<rect x="595" y="345" width="140" height="8" rx="4" fill="#330000"/>

<rect
x="595"
y="345"
width="112"
height="8"
rx="4"
fill="#ff0033">

<animate
attributeName="width"
values="0;112;112"
dur="3s"
fill="freeze"/>

</rect>

<text
x="725"
y="332"
fill="#ff6666"
font-size="14"
font-family="Consolas">

80%

</text>

<!-- ================================= -->
<!-- Animated Scan Line -->
<!-- ================================= -->

<rect
x="-100"
y="0"
width="80"
height="430"
fill="white"
opacity="0.05"
transform="skewX(-20)">

<animate
attributeName="x"
values="-100;980"
dur="5s"
repeatCount="indefinite"/>

</rect>

<!-- ================================= -->
<!-- Footer -->
<!-- ================================= -->

<line
x1="40"
y1="392"
x2="860"
y2="392"
stroke="#330000"
stroke-width="2"/>

<text
x="450"
y="414"
text-anchor="middle"
fill="#888888"
font-size="14"
font-family="Consolas">

TECH MATRIX • CYBER SECURITY • AI • IoT

</text>

</svg>
